<svg width="400" height="400" viewBox="0 0 400 400" fill="none" xmlns="http://www.w3.org/2000/svg">
  <rect width="400" height="400" fill="#1E293B"/>
  <path d="M200 120C177.909 120 160 137.909 160 160V280C160 302.091 177.909 320 200 320H240C262.091 320 280 302.091 280 280V200V160C280 137.909 262.091 120 240 120H200Z" fill="#334155"/>
  <path d="M200 140C188.954 140 180 148.954 180 160V280C180 291.046 188.954 300 200 300H240C251.046 300 260 291.046 260 280V200V160C260 148.954 251.046 140 240 140H200Z" fill="#475569"/>
  <path d="M190 80H250L240 120H200L190 80Z" fill="#64748B"/>
  <path d="M180 320H260V340C260 351.046 251.046 360 240 360H200C188.954 360 180 351.046 180 340V320Z" fill="#64748B"/>
  <circle cx="220" cy="220" r="60" fill="#0EA5E9" fill-opacity="0.6"/>
  <circle cx="220" cy="220" r="40" fill="#0EA5E9" fill-opacity="0.8"/>
</svg>
